<svg width="1375" height="1094" viewBox="0 0 1375 1094" fill="none" xmlns="http://www.w3.org/2000/svg">
<g clip-path="url(#clip0)">
<path d="M527.183 0.529462L247.323 63.8439C235.857 66.438 228.665 77.8331 231.26 89.2955L327.485 514.321C330.081 525.784 341.48 532.973 352.946 530.379L632.806 467.064C644.272 464.47 651.464 453.075 648.869 441.613L552.644 16.5869C550.049 5.12446 538.649 -2.06468 527.183 0.529462Z" fill="#6C63FF"/>
<path d="M258.889 140.729C264.14 140.729 268.396 136.474 268.396 131.226C268.396 125.978 264.14 121.723 258.889 121.723C253.639 121.723 249.383 125.978 249.383 131.226C249.383 136.474 253.639 140.729 258.889 140.729Z" fill="white"/>
<path d="M268.396 175.573C273.646 175.573 277.902 171.319 277.902 166.07C277.902 160.822 273.646 156.567 268.396 156.567C263.145 156.567 258.889 160.822 258.889 166.07C258.889 171.319 263.145 175.573 268.396 175.573Z" fill="white"/>
<path d="M330.187 430.57C335.437 430.57 339.694 426.316 339.694 421.067C339.694 415.819 335.437 411.564 330.187 411.564C324.937 411.564 320.681 415.819 320.681 421.067C320.681 426.316 324.937 430.57 330.187 430.57Z" fill="white"/>
<path d="M339.693 465.415C344.944 465.415 349.2 461.16 349.2 455.912C349.2 450.663 344.944 446.409 339.693 446.409C334.443 446.409 330.187 450.663 330.187 455.912C330.187 461.16 334.443 465.415 339.693 465.415Z" fill="white"/>
<path d="M526.001 177.29L333.028 220.948L340.307 253.099L533.28 209.441L526.001 177.29Z" fill="#F5F5F5"/>
<path d="M972.06 70.742L442.002 270.687L684.614 913.398L1214.67 713.454L972.06 70.742Z" fill="#3F3D56"/>
<path d="M963.366 623.287L725.332 713.076L729.036 722.889L967.07 633.099L963.366 623.287Z" fill="#6C63FF"/>
<path d="M1137.74 624.77L747.556 771.951L751.26 781.763L1141.44 634.582L1137.74 624.77Z" fill="#6C63FF"/>
<path d="M1115.51 565.896L1014.9 603.848L1018.6 613.66L1119.22 575.708L1115.51 565.896Z" fill="#6C63FF"/>
<path d="M837.056 704.561L736.444 742.513L740.148 752.326L840.76 714.374L837.056 704.561Z" fill="#6C63FF"/>
<path d="M981.84 649.947L881.228 687.899L884.932 697.712L985.544 659.759L981.84 649.947Z" fill="#6C63FF"/>
<path d="M1126.62 595.333L1026.01 633.285L1029.72 643.098L1130.33 605.145L1126.62 595.333Z" fill="#6C63FF"/>
<path d="M912.27 270.581L617.795 381.661L658.538 489.597L953.014 378.517L912.27 270.581Z" fill="#6C63FF"/>
<g opacity="0.5">
<path opacity="0.5" d="M1155.66 303.864H1150.91V330.789H1155.66V303.864Z" fill="#47E6B1"/>
<path opacity="0.5" d="M1166.75 319.702V314.95H1139.81V319.702H1166.75Z" fill="#47E6B1"/>
</g>
<g opacity="0.5">
<path opacity="0.5" d="M312.759 619.046H308.006V645.971H312.759V619.046Z" fill="#47E6B1"/>
<path opacity="0.5" d="M323.85 634.885V630.133H296.915V634.885H323.85Z" fill="#47E6B1"/>
</g>
<g opacity="0.5">
<path opacity="0.5" d="M506.055 810.69H501.302V837.615H506.055V810.69Z" fill="#47E6B1"/>
<path opacity="0.5" d="M517.146 826.528V821.776H490.211V826.528H517.146Z" fill="#47E6B1"/>
</g>
<path opacity="0.5" d="M1195.6 923.609C1194.29 923.038 1193.23 922.007 1192.64 920.71C1192.04 919.413 1191.94 917.941 1192.35 916.575C1192.42 916.366 1192.46 916.149 1192.48 915.929V915.929C1192.52 915.304 1192.35 914.682 1192.01 914.157C1191.67 913.632 1191.16 913.231 1190.58 913.014C1189.99 912.797 1189.35 912.775 1188.74 912.952C1188.14 913.129 1187.61 913.495 1187.23 913.995V913.995C1187.11 914.173 1187 914.365 1186.91 914.568C1186.34 915.878 1185.31 916.932 1184.01 917.53C1182.71 918.128 1181.24 918.228 1179.88 917.811C1179.67 917.744 1179.45 917.701 1179.23 917.685V917.685C1178.6 917.647 1177.98 917.811 1177.46 918.154C1176.93 918.497 1176.53 918.999 1176.31 919.588C1176.1 920.176 1176.07 920.818 1176.25 921.42C1176.43 922.022 1176.79 922.55 1177.29 922.928V922.928C1177.47 923.058 1177.67 923.166 1177.87 923.251C1179.18 923.821 1180.23 924.853 1180.83 926.15C1181.43 927.447 1181.53 928.918 1181.11 930.284C1181.04 930.494 1181 930.711 1180.99 930.93V930.93C1180.95 931.556 1181.11 932.177 1181.45 932.702C1181.8 933.228 1182.3 933.628 1182.89 933.845C1183.48 934.062 1184.12 934.084 1184.72 933.907C1185.32 933.731 1185.85 933.365 1186.23 932.864C1186.36 932.687 1186.47 932.494 1186.55 932.291C1187.12 930.982 1188.16 929.928 1189.45 929.33C1190.75 928.732 1192.22 928.632 1193.59 929.048C1193.8 929.116 1194.02 929.158 1194.24 929.175V929.175C1194.86 929.213 1195.48 929.048 1196.01 928.706C1196.53 928.363 1196.94 927.86 1197.15 927.272C1197.37 926.684 1197.39 926.041 1197.21 925.439C1197.04 924.838 1196.67 924.309 1196.17 923.932V923.932C1195.99 923.802 1195.8 923.693 1195.6 923.609V923.609Z" fill="#4D8AF0"/>
<path opacity="0.5" d="M1075.18 1083.58C1073.87 1083.01 1072.82 1081.97 1072.22 1080.68C1071.62 1079.38 1071.52 1077.91 1071.94 1076.54C1072.01 1076.33 1072.05 1076.12 1072.07 1075.9V1075.9C1072.1 1075.27 1071.94 1074.65 1071.6 1074.12C1071.25 1073.6 1070.75 1073.2 1070.16 1072.98C1069.57 1072.76 1068.93 1072.74 1068.33 1072.92C1067.73 1073.1 1067.2 1073.46 1066.82 1073.96V1073.96C1066.69 1074.14 1066.58 1074.33 1066.5 1074.54C1065.93 1075.84 1064.89 1076.9 1063.6 1077.5C1062.3 1078.09 1060.83 1078.19 1059.46 1077.78C1059.25 1077.71 1059.03 1077.67 1058.82 1077.65V1077.65C1058.19 1077.61 1057.57 1077.78 1057.04 1078.12C1056.52 1078.46 1056.12 1078.97 1055.9 1079.55C1055.68 1080.14 1055.66 1080.79 1055.84 1081.39C1056.01 1081.99 1056.38 1082.52 1056.88 1082.89C1057.06 1083.02 1057.25 1083.13 1057.45 1083.22C1058.76 1083.79 1059.82 1084.82 1060.42 1086.12C1061.01 1087.41 1061.11 1088.89 1060.7 1090.25C1060.63 1090.46 1060.59 1090.68 1060.57 1090.9C1060.53 1091.52 1060.7 1092.14 1061.04 1092.67C1061.38 1093.19 1061.89 1093.6 1062.48 1093.81C1063.06 1094.03 1063.71 1094.05 1064.31 1093.87C1064.91 1093.7 1065.44 1093.33 1065.82 1092.83V1092.83C1065.95 1092.65 1066.05 1092.46 1066.14 1092.26C1066.71 1090.95 1067.74 1089.89 1069.04 1089.3C1070.34 1088.7 1071.81 1088.6 1073.18 1089.02C1073.39 1089.08 1073.6 1089.13 1073.82 1089.14V1089.14C1074.45 1089.18 1075.07 1089.02 1075.59 1088.67C1076.12 1088.33 1076.52 1087.83 1076.74 1087.24C1076.96 1086.65 1076.98 1086.01 1076.8 1085.41C1076.62 1084.8 1076.26 1084.28 1075.76 1083.9V1083.9C1075.58 1083.77 1075.39 1083.66 1075.18 1083.58V1083.58Z" fill="#4D8AF0"/>
<path opacity="0.5" d="M19.4717 691.833C18.1618 691.263 17.1074 690.231 16.5092 688.934C15.911 687.637 15.8108 686.166 16.2276 684.799C16.2951 684.59 16.3376 684.373 16.3542 684.154V684.154C16.3923 683.528 16.2278 682.907 15.8849 682.381C15.542 681.856 15.0391 681.456 14.4506 681.239C13.8621 681.022 13.2193 681 12.6175 681.177C12.0156 681.353 11.4868 681.719 11.1091 682.22V682.22C10.9793 682.397 10.8709 682.59 10.7861 682.793C10.2156 684.102 9.1834 685.156 7.88593 685.754C6.58847 686.352 5.11635 686.452 3.74978 686.036C3.54027 685.968 3.32353 685.926 3.10406 685.909V685.909C2.47796 685.871 1.85624 686.036 1.33097 686.378C0.805708 686.721 0.40483 687.224 0.187739 687.812C-0.0293522 688.4 -0.0511196 689.043 0.125655 689.645C0.302429 690.246 0.668349 690.775 1.16921 691.152V691.152C1.34692 691.282 1.53933 691.39 1.74245 691.475C3.05233 692.046 4.10672 693.077 4.7049 694.374C5.30309 695.671 5.40331 697.143 4.98648 698.509C4.91904 698.718 4.87656 698.935 4.85989 699.155V699.155C4.82179 699.78 4.98633 700.402 5.3292 700.927C5.67206 701.452 6.17499 701.853 6.76349 702.07C7.35198 702.287 7.99477 702.309 8.59661 702.132C9.19845 701.955 9.72733 701.589 10.1049 701.089V701.089C10.2348 700.911 10.3433 700.719 10.428 700.516C10.9985 699.206 12.0307 698.152 13.3282 697.554C14.6256 696.956 16.0977 696.856 17.4643 697.273C17.6738 697.34 17.8906 697.383 18.1101 697.399C18.7362 697.437 19.3579 697.273 19.8831 696.93C20.4084 696.587 20.8093 696.085 21.0264 695.496C21.2435 694.908 21.2652 694.266 21.0885 693.664C20.9117 693.062 20.5458 692.534 20.0449 692.156V692.156C19.8672 692.026 19.6748 691.918 19.4717 691.833Z" fill="#4D8AF0"/>
<path opacity="0.5" d="M677.17 140.729C682.421 140.729 686.677 136.474 686.677 131.226C686.677 125.978 682.421 121.723 677.17 121.723C671.92 121.723 667.664 125.978 667.664 131.226C667.664 136.474 671.92 140.729 677.17 140.729Z" fill="#F55F44"/>
<path opacity="0.5" d="M152.735 389.391C157.985 389.391 162.241 385.136 162.241 379.888C162.241 374.639 157.985 370.385 152.735 370.385C147.484 370.385 143.228 374.639 143.228 379.888C143.228 385.136 147.484 389.391 152.735 389.391Z" fill="#4D8AF0"/>
<path opacity="0.5" d="M37.5763 477.037C42.8266 477.037 47.0827 472.783 47.0827 467.534C47.0827 462.286 42.8266 458.031 37.5763 458.031C32.3261 458.031 28.0699 462.286 28.0699 467.534C28.0699 472.783 32.3261 477.037 37.5763 477.037Z" fill="#F55F44"/>
<g opacity="0.5">
<path opacity="0.5" d="M1024.69 371.673L1021.52 694.699L1120.31 695.669L1123.49 372.644L1024.69 371.673Z" fill="url(#paint0_linear)"/>
</g>
<path d="M1121.85 374.788L1027.91 373.866L1024.78 692.57L1118.71 693.493L1121.85 374.788Z" fill="#E0E0E0"/>
<path d="M1108.12 379.779L1041.71 379.127L1041.06 445.507L1107.47 446.159L1108.12 379.779Z" fill="#4D8AF0"/>
<path opacity="0.5" d="M1107.33 459.92L1040.93 459.268L1040.27 525.648L1106.68 526.3L1107.33 459.92Z" fill="#4D8AF0"/>
<path opacity="0.3" d="M1106.54 540.062L1040.14 539.41L1039.49 605.789L1105.89 606.442L1106.54 540.062Z" fill="#4D8AF0"/>
<g opacity="0.5">
<path opacity="0.5" d="M1018.58 390.231L924.498 420.396L1022.83 726.857L1116.91 696.692L1018.58 390.231Z" fill="url(#paint1_linear)"/>
</g>
<path d="M1017.69 392.777L928.24 421.458L1025.25 723.803L1114.7 695.121L1017.69 392.777Z" fill="#F5F5F5"/>
<path d="M1006.21 401.842L942.972 422.117L963.254 485.328L1026.49 465.053L1006.21 401.842Z" fill="#FF5252"/>
<path opacity="0.5" d="M1030.69 478.158L967.459 498.433L987.742 561.644L1050.98 541.369L1030.69 478.158Z" fill="#FF5252"/>
<path opacity="0.3" d="M1055.18 554.474L991.946 574.749L1012.23 637.96L1075.46 617.685L1055.18 554.474Z" fill="#FF5252"/>
<g opacity="0.5">
<path opacity="0.5" d="M960.155 412.27L874.145 460.871L1032.57 741.045L1118.58 692.444L960.155 412.27Z" fill="url(#paint2_linear)"/>
</g>
<path d="M959.809 414.947L878.029 461.158L1034.33 737.571L1116.11 691.36L959.809 414.947Z" fill="#F5F5F5"/>
<path d="M950.36 426.174L892.55 458.84L925.228 516.63L983.038 483.963L950.36 426.174Z" fill="#69F0AE"/>
<path opacity="0.5" d="M989.813 495.944L932.003 528.61L964.681 586.4L1022.49 553.733L989.813 495.944Z" fill="#69F0AE"/>
<path opacity="0.3" d="M1029.27 565.714L971.456 598.381L1004.13 656.17L1061.94 623.504L1029.27 565.714Z" fill="#69F0AE"/>
<g opacity="0.5">
<path opacity="0.5" d="M925.619 436.58L846.384 495.579L1038.71 753.684L1117.94 694.686L925.619 436.58Z" fill="url(#paint3_linear)"/>
</g>
<path d="M925.611 439.281L850.273 495.377L1040.01 750.017L1115.35 693.92L925.611 439.281Z" fill="white"/>
<path d="M917.633 451.612L864.376 491.266L904.045 544.504L957.302 504.849L917.633 451.612Z" fill="#6C63FF"/>
<path opacity="0.5" d="M965.525 515.886L912.269 555.541L951.938 608.778L1005.19 569.124L965.525 515.886Z" fill="#6C63FF"/>
<path opacity="0.3" d="M1013.42 580.161L960.162 619.815L999.83 673.053L1053.09 633.398L1013.42 580.161Z" fill="#6C63FF"/>
<path opacity="0.5" d="M340.324 883.184C345.574 883.184 349.831 878.929 349.831 873.681C349.831 868.433 345.574 864.178 340.324 864.178C335.074 864.178 330.818 868.433 330.818 873.681C330.818 878.929 335.074 883.184 340.324 883.184Z" fill="#F55F44"/>
<path opacity="0.5" d="M122.698 979.311C121.388 978.741 120.334 977.709 119.736 976.412C119.138 975.115 119.037 973.643 119.454 972.277C119.522 972.068 119.564 971.851 119.581 971.631V971.631C119.619 971.006 119.454 970.384 119.112 969.859C118.769 969.334 118.266 968.933 117.677 968.716C117.089 968.499 116.446 968.477 115.844 968.654C115.242 968.831 114.713 969.197 114.336 969.697V969.697C114.206 969.875 114.097 970.067 114.013 970.27C113.442 971.58 112.41 972.634 111.113 973.232C109.815 973.83 108.343 973.93 106.976 973.513C106.767 973.446 106.55 973.403 106.331 973.387V973.387C105.705 973.349 105.083 973.513 104.558 973.856C104.032 974.199 103.631 974.701 103.414 975.29C103.197 975.878 103.175 976.52 103.352 977.122C103.529 977.724 103.895 978.252 104.396 978.63C104.573 978.76 104.766 978.868 104.969 978.953C106.279 979.523 107.333 980.555 107.932 981.852C108.53 983.149 108.63 984.621 108.213 985.987C108.146 986.196 108.103 986.413 108.086 986.632C108.048 987.258 108.213 987.88 108.556 988.405C108.899 988.93 109.402 989.33 109.99 989.547C110.579 989.764 111.221 989.786 111.823 989.609C112.425 989.433 112.954 989.067 113.332 988.566V988.566C113.461 988.389 113.57 988.196 113.655 987.993C114.225 986.684 115.257 985.63 116.555 985.032C117.852 984.434 119.324 984.334 120.691 984.75C120.901 984.818 121.117 984.86 121.337 984.877V984.877C121.963 984.915 122.584 984.751 123.11 984.408C123.635 984.065 124.036 983.562 124.253 982.974C124.47 982.386 124.492 981.743 124.315 981.142C124.138 980.54 123.772 980.011 123.272 979.634V979.634C123.094 979.504 122.901 979.396 122.698 979.311V979.311Z" fill="#4D8AF0"/>
<path opacity="0.5" d="M494.002 704.954C499.252 704.954 503.508 700.7 503.508 695.451C503.508 690.203 499.252 685.948 494.002 685.948C488.751 685.948 484.495 690.203 484.495 695.451C484.495 700.7 488.751 704.954 494.002 704.954Z" fill="#47E6B1"/>
</g>
<defs>
<linearGradient id="paint0_linear" x1="1070.91" y1="695.184" x2="1074.09" y2="372.158" gradientUnits="userSpaceOnUse">
<stop stop-color="#808080" stop-opacity="0.25"/>
<stop offset="0.53514" stop-color="#808080" stop-opacity="0.12"/>
<stop offset="1" stop-color="#808080" stop-opacity="0.1"/>
</linearGradient>
<linearGradient id="paint1_linear" x1="133613" y1="220175" x2="113645" y2="157898" gradientUnits="userSpaceOnUse">
<stop stop-color="#808080" stop-opacity="0.25"/>
<stop offset="0.53514" stop-color="#808080" stop-opacity="0.12"/>
<stop offset="1" stop-color="#808080" stop-opacity="0.1"/>
</linearGradient>
<linearGradient id="paint2_linear" x1="174940" y1="194596" x2="142764" y2="137654" gradientUnits="userSpaceOnUse">
<stop stop-color="#808080" stop-opacity="0.25"/>
<stop offset="0.53514" stop-color="#808080" stop-opacity="0.12"/>
<stop offset="1" stop-color="#808080" stop-opacity="0.1"/>
</linearGradient>
<linearGradient id="paint3_linear" x1="200164" y1="176945" x2="161101" y2="124484" gradientUnits="userSpaceOnUse">
<stop stop-color="#808080" stop-opacity="0.25"/>
<stop offset="0.53514" stop-color="#808080" stop-opacity="0.12"/>
<stop offset="1" stop-color="#808080" stop-opacity="0.1"/>
</linearGradient>
<clipPath id="clip0">
<rect width="1375" height="1094" fill="white"/>
</clipPath>
</defs>
</svg>
