<svg width="1099" height="933" viewBox="0 0 1099 933" fill="none" xmlns="http://www.w3.org/2000/svg">
<g clip-path="url(#clip0)">
<path d="M449.388 0.451549L210.827 54.4482C201.052 56.6606 194.922 66.3787 197.134 76.1542L279.159 438.631C281.372 448.406 291.089 454.537 300.863 452.325L539.424 398.328C549.199 396.116 555.329 386.398 553.117 376.622L471.092 14.1458C468.88 4.37032 459.163 -1.76083 449.388 0.451549Z" fill="#6C63FF"/>
<path d="M220.686 120.018C225.161 120.018 228.789 116.39 228.789 111.914C228.789 107.438 225.161 103.809 220.686 103.809C216.21 103.809 212.582 107.438 212.582 111.914C212.582 116.39 216.21 120.018 220.686 120.018Z" fill="white"/>
<path d="M228.789 149.735C233.265 149.735 236.893 146.106 236.893 141.63C236.893 137.154 233.265 133.526 228.789 133.526C224.314 133.526 220.686 137.154 220.686 141.63C220.686 146.106 224.314 149.735 228.789 149.735Z" fill="white"/>
<path d="M281.463 367.205C285.938 367.205 289.566 363.576 289.566 359.1C289.566 354.624 285.938 350.996 281.463 350.996C276.987 350.996 273.359 354.624 273.359 359.1C273.359 363.576 276.987 367.205 281.463 367.205Z" fill="white"/>
<path d="M289.566 396.921C294.042 396.921 297.67 393.293 297.67 388.817C297.67 384.341 294.042 380.712 289.566 380.712C285.091 380.712 281.463 384.341 281.463 388.817C281.463 393.293 285.091 396.921 289.566 396.921Z" fill="white"/>
<path d="M448.381 151.199L283.884 188.432L290.089 215.851L454.586 178.618L448.381 151.199Z" fill="#F5F5F5"/>
<path d="M828.617 60.3311L376.777 230.851L583.588 778.977L1035.43 608.457L828.617 60.3311Z" fill="#3F3D56"/>
<path d="M821.205 531.56L618.297 608.136L621.454 616.504L824.363 539.928L821.205 531.56Z" fill="#6C63FF"/>
<path d="M969.844 532.825L637.241 658.345L640.399 666.714L973.001 541.193L969.844 532.825Z" fill="#6C63FF"/>
<path d="M950.899 482.615L865.134 514.982L868.291 523.35L954.057 490.983L950.899 482.615Z" fill="#6C63FF"/>
<path d="M713.534 600.874L627.769 633.241L630.926 641.609L716.692 609.242L713.534 600.874Z" fill="#6C63FF"/>
<path d="M836.953 554.297L751.188 586.664L754.345 595.032L840.11 562.665L836.953 554.297Z" fill="#6C63FF"/>
<path d="M960.372 507.72L874.606 540.087L877.764 548.455L963.529 516.088L960.372 507.72Z" fill="#6C63FF"/>
<path d="M777.65 230.761L526.629 325.493L561.36 417.544L812.381 322.812L777.65 230.761Z" fill="#6C63FF"/>
<g opacity="0.5">
<path opacity="0.5" d="M985.122 259.145H981.07V282.108H985.122V259.145Z" fill="#47E6B1"/>
<path opacity="0.5" d="M994.576 272.653V268.6H971.616V272.653H994.576Z" fill="#47E6B1"/>
</g>
<g opacity="0.5">
<path opacity="0.5" d="M266.606 527.943H262.554V550.906H266.606V527.943Z" fill="#47E6B1"/>
<path opacity="0.5" d="M276.06 541.451V537.399H253.1V541.451H276.06Z" fill="#47E6B1"/>
</g>
<g opacity="0.5">
<path opacity="0.5" d="M431.378 691.384H427.327V714.346H431.378V691.384Z" fill="#47E6B1"/>
<path opacity="0.5" d="M440.833 704.891V700.839H417.872V704.891H440.833Z" fill="#47E6B1"/>
</g>
<path opacity="0.5" d="M1019.17 787.685C1018.05 787.198 1017.15 786.318 1016.64 785.212C1016.13 784.106 1016.05 782.851 1016.4 781.686C1016.46 781.507 1016.5 781.322 1016.51 781.135V781.135C1016.54 780.602 1016.4 780.072 1016.11 779.624C1015.82 779.176 1015.39 778.834 1014.89 778.649C1014.39 778.464 1013.84 778.446 1013.32 778.596C1012.81 778.747 1012.36 779.059 1012.04 779.486V779.486C1011.93 779.637 1011.84 779.801 1011.76 779.975C1011.28 781.091 1010.4 781.99 1009.29 782.5C1008.18 783.01 1006.93 783.096 1005.77 782.74C1005.59 782.683 1005.4 782.647 1005.21 782.632V782.632C1004.68 782.6 1004.15 782.74 1003.7 783.032C1003.26 783.325 1002.91 783.753 1002.73 784.255C1002.54 784.757 1002.53 785.305 1002.68 785.818C1002.83 786.331 1003.14 786.782 1003.57 787.104V787.104C1003.72 787.215 1003.88 787.307 1004.05 787.379C1005.17 787.866 1006.07 788.746 1006.58 789.852C1007.09 790.958 1007.17 792.213 1006.82 793.378C1006.76 793.557 1006.73 793.741 1006.71 793.928V793.928C1006.68 794.462 1006.82 794.992 1007.11 795.44C1007.4 795.888 1007.83 796.23 1008.33 796.415C1008.84 796.6 1009.38 796.618 1009.9 796.468C1010.41 796.317 1010.86 796.005 1011.18 795.578C1011.29 795.426 1011.39 795.262 1011.46 795.089C1011.94 793.973 1012.82 793.074 1013.93 792.564C1015.04 792.054 1016.29 791.968 1017.46 792.324C1017.63 792.381 1017.82 792.417 1018.01 792.432V792.432C1018.54 792.464 1019.07 792.324 1019.52 792.031C1019.97 791.739 1020.31 791.31 1020.49 790.809C1020.68 790.307 1020.7 789.759 1020.55 789.246C1020.39 788.733 1020.08 788.282 1019.66 787.96V787.96C1019.5 787.849 1019.34 787.757 1019.17 787.685V787.685Z" fill="#4D8AF0"/>
<path opacity="0.5" d="M916.522 924.11C915.405 923.623 914.507 922.743 913.997 921.637C913.487 920.531 913.401 919.276 913.757 918.111C913.814 917.933 913.85 917.748 913.865 917.561V917.561C913.897 917.027 913.757 916.497 913.465 916.049C913.172 915.601 912.744 915.259 912.242 915.074C911.74 914.889 911.192 914.871 910.679 915.021C910.166 915.172 909.715 915.484 909.394 915.911V915.911C909.283 916.063 909.19 916.227 909.118 916.4C908.632 917.517 907.752 918.416 906.646 918.925C905.54 919.435 904.285 919.521 903.12 919.165C902.942 919.108 902.757 919.072 902.57 919.058V919.058C902.036 919.025 901.506 919.165 901.058 919.458C900.61 919.75 900.269 920.179 900.084 920.68C899.899 921.182 899.88 921.73 900.031 922.243C900.181 922.756 900.493 923.207 900.92 923.529C901.072 923.64 901.236 923.732 901.409 923.805C902.526 924.291 903.424 925.171 903.934 926.277C904.444 927.383 904.53 928.638 904.174 929.803C904.117 929.982 904.081 930.167 904.066 930.354C904.034 930.888 904.174 931.418 904.466 931.865C904.759 932.313 905.187 932.655 905.689 932.84C906.191 933.025 906.739 933.044 907.252 932.893C907.765 932.742 908.216 932.43 908.538 932.003V932.003C908.648 931.852 908.741 931.688 908.813 931.515C909.299 930.398 910.179 929.499 911.285 928.989C912.391 928.479 913.646 928.394 914.811 928.749C914.99 928.806 915.174 928.843 915.361 928.857V928.857C915.895 928.889 916.425 928.749 916.873 928.457C917.321 928.164 917.662 927.736 917.847 927.234C918.032 926.732 918.051 926.184 917.9 925.671C917.75 925.158 917.438 924.707 917.011 924.385V924.385C916.859 924.275 916.695 924.182 916.522 924.11V924.11Z" fill="#4D8AF0"/>
<path opacity="0.5" d="M16.5984 590.019C15.4818 589.532 14.583 588.652 14.0731 587.546C13.5632 586.44 13.4777 585.185 13.8331 584.02C13.8906 583.841 13.9268 583.656 13.941 583.469V583.469C13.9735 582.936 13.8332 582.406 13.5409 581.958C13.2487 581.51 12.8199 581.168 12.3183 580.983C11.8166 580.798 11.2687 580.78 10.7557 580.93C10.2426 581.081 9.7918 581.393 9.46991 581.82V581.82C9.35922 581.971 9.26678 582.135 9.19452 582.309C8.70822 583.425 7.82834 584.324 6.72233 584.834C5.61633 585.344 4.36145 585.43 3.19654 585.074C3.01795 585.017 2.83319 584.981 2.64611 584.966V584.966C2.1124 584.934 1.58242 585.074 1.13467 585.366C0.686917 585.659 0.345195 586.087 0.160139 586.589C-0.0249166 587.091 -0.0434718 587.639 0.107217 588.152C0.257905 588.665 0.569827 589.116 0.996779 589.438V589.438C1.14826 589.549 1.31228 589.641 1.48543 589.713C2.60201 590.2 3.50081 591.08 4.01072 592.186C4.52063 593.292 4.60606 594.547 4.25075 595.712C4.19326 595.891 4.15704 596.075 4.14284 596.262V596.262C4.11036 596.796 4.25062 597.326 4.54289 597.774C4.83516 598.222 5.26387 598.564 5.76553 598.749C6.26718 598.934 6.81511 598.952 7.32814 598.802C7.84116 598.651 8.292 598.339 8.6139 597.912V597.912C8.7246 597.761 8.81704 597.596 8.88929 597.423C9.37559 596.307 10.2555 595.408 11.3615 594.898C12.4675 594.388 13.7224 594.302 14.8873 594.658C15.0659 594.715 15.2506 594.751 15.4377 594.766C15.9714 594.798 16.5014 594.658 16.9492 594.365C17.3969 594.073 17.7386 593.644 17.9237 593.143C18.1087 592.641 18.1273 592.093 17.9766 591.58C17.8259 591.067 17.514 590.616 17.087 590.294V590.294C16.9355 590.183 16.7715 590.091 16.5984 590.019Z" fill="#4D8AF0"/>
<path opacity="0.5" d="M577.242 120.018C581.718 120.018 585.346 116.39 585.346 111.914C585.346 107.438 581.718 103.809 577.242 103.809C572.767 103.809 569.139 107.438 569.139 111.914C569.139 116.39 572.767 120.018 577.242 120.018Z" fill="#F55F44"/>
<path opacity="0.5" d="M130.196 332.085C134.672 332.085 138.3 328.457 138.3 323.981C138.3 319.505 134.672 315.876 130.196 315.876C125.721 315.876 122.093 319.505 122.093 323.981C122.093 328.457 125.721 332.085 130.196 332.085Z" fill="#4D8AF0"/>
<path opacity="0.5" d="M1090.9 555.415C1095.37 555.415 1099 551.787 1099 547.311C1099 542.835 1095.37 539.206 1090.9 539.206C1086.42 539.206 1082.79 542.835 1082.79 547.311C1082.79 551.787 1086.42 555.415 1090.9 555.415Z" fill="#47E6B1"/>
<path opacity="0.5" d="M32.0313 406.833C36.5068 406.833 40.1349 403.205 40.1349 398.729C40.1349 394.253 36.5068 390.625 32.0313 390.625C27.5558 390.625 23.9277 394.253 23.9277 398.729C23.9277 403.205 27.5558 406.833 32.0313 406.833Z" fill="#F55F44"/>
<g opacity="0.5">
<path opacity="0.5" d="M873.482 316.975L870.775 592.463L954.992 593.29L957.698 317.803L873.482 316.975Z" fill="url(#paint0_linear)"/>
</g>
<path d="M956.3 319.632L876.225 318.845L873.554 590.647L953.629 591.434L956.3 319.632Z" fill="#E0E0E0"/>
<path d="M944.596 323.888L887.991 323.332L887.435 379.943L944.04 380.499L944.596 323.888Z" fill="#4D8AF0"/>
<path opacity="0.5" d="M943.925 392.236L887.32 391.679L886.764 448.29L943.369 448.847L943.925 392.236Z" fill="#4D8AF0"/>
<path opacity="0.3" d="M943.253 460.583L886.649 460.027L886.092 516.638L942.697 517.194L943.253 460.583Z" fill="#4D8AF0"/>
<g opacity="0.5">
<path opacity="0.5" d="M868.269 332.803L788.072 358.528L871.893 619.888L952.089 594.162L868.269 332.803Z" fill="url(#paint1_linear)"/>
</g>
<path d="M867.515 334.973L791.262 359.434L873.958 617.283L950.211 592.823L867.515 334.973Z" fill="#F5F5F5"/>
<path d="M857.723 342.704L803.821 359.996L821.11 413.904L875.013 396.613L857.723 342.704Z" fill="#FF5252"/>
<path opacity="0.5" d="M878.597 407.789L824.695 425.08L841.984 478.989L895.886 461.698L878.597 407.789Z" fill="#FF5252"/>
<path opacity="0.3" d="M899.471 472.874L845.568 490.165L862.857 544.073L916.76 526.782L899.471 472.874Z" fill="#FF5252"/>
<g opacity="0.5">
<path opacity="0.5" d="M818.468 351.597L745.15 393.046L880.201 631.989L953.519 590.54L818.468 351.597Z" fill="url(#paint2_linear)"/>
</g>
<path d="M818.173 353.881L748.461 393.292L881.698 629.025L951.41 589.615L818.173 353.881Z" fill="#F5F5F5"/>
<path d="M810.118 363.455L760.839 391.314L788.695 440.599L837.974 412.74L810.118 363.455Z" fill="#69F0AE"/>
<path opacity="0.5" d="M843.749 422.958L794.47 450.817L822.326 500.102L871.605 472.243L843.749 422.958Z" fill="#69F0AE"/>
<path opacity="0.3" d="M877.38 482.46L828.101 510.319L855.957 559.604L905.236 531.745L877.38 482.46Z" fill="#69F0AE"/>
<g opacity="0.5">
<path opacity="0.5" d="M789.028 372.33L721.486 422.646L885.427 642.767L952.97 592.452L789.028 372.33Z" fill="url(#paint3_linear)"/>
</g>
<path d="M789.022 374.633L724.801 422.474L886.541 639.64L950.762 591.799L789.022 374.633Z" fill="white"/>
<path d="M782.221 385.15L736.823 418.968L770.638 464.371L816.036 430.552L782.221 385.15Z" fill="#6C63FF"/>
<path opacity="0.5" d="M823.046 439.965L777.649 473.784L811.464 519.187L856.861 485.368L823.046 439.965Z" fill="#6C63FF"/>
<path opacity="0.3" d="M863.871 494.781L818.474 528.599L852.289 574.002L897.686 540.183L863.871 494.781Z" fill="#6C63FF"/>
</g>
<defs>
<linearGradient id="paint0_linear" x1="912.883" y1="592.876" x2="915.591" y2="317.389" gradientUnits="userSpaceOnUse">
<stop stop-color="#808080" stop-opacity="0.25"/>
<stop offset="0.53514" stop-color="#808080" stop-opacity="0.12"/>
<stop offset="1" stop-color="#808080" stop-opacity="0.1"/>
</linearGradient>
<linearGradient id="paint1_linear" x1="113896" y1="187773" x2="96860.6" y2="134665" gradientUnits="userSpaceOnUse">
<stop stop-color="#808080" stop-opacity="0.25"/>
<stop offset="0.53514" stop-color="#808080" stop-opacity="0.12"/>
<stop offset="1" stop-color="#808080" stop-opacity="0.1"/>
</linearGradient>
<linearGradient id="paint2_linear" x1="149124" y1="165958" x2="121677" y2="117407" gradientUnits="userSpaceOnUse">
<stop stop-color="#808080" stop-opacity="0.25"/>
<stop offset="0.53514" stop-color="#808080" stop-opacity="0.12"/>
<stop offset="1" stop-color="#808080" stop-opacity="0.1"/>
</linearGradient>
<linearGradient id="paint3_linear" x1="170626" y1="150905" x2="137308" y2="106179" gradientUnits="userSpaceOnUse">
<stop stop-color="#808080" stop-opacity="0.25"/>
<stop offset="0.53514" stop-color="#808080" stop-opacity="0.12"/>
<stop offset="1" stop-color="#808080" stop-opacity="0.1"/>
</linearGradient>
<clipPath id="clip0">
<rect width="1099" height="933" fill="white"/>
</clipPath>
</defs>
</svg>
